PathFileType	4	(X/Y/Z)	C:/Users/beibeiliu/ov580/test_trc\sequence.17_training_dense_left.trc
DataRate	CameraRate	NumFrames	NumMarkers	Units	OrigDataRate	OrigDataStartFrame	OrigNumFrames
120	120	11	19	mm	120	266	303
Frame#	Time	ThumbCMC			ThumbMCP			ThumbIP			ThumbTip			IndexMCP			IndexPIP			IndexTip			MiddleMCP			MiddlePIP			MiddleTip			RingMCP			RingPIP			RingTip			PinkyMCP			PinkyPIP			PinkyTip			BackHand1			BackHand2			BackHand3	
		X0	Y0	Z0	X1	Y1	Z1	X2	Y2	Z2	X3	Y3	Z3	X4	Y4	Z4	X5	Y5	Z5	X6	Y6	Z6	X7	Y7	Z7	X8	Y8	Z8	X9	Y9	Z9	X10	Y10	Z10	X11	Y11	Z11	X12	Y12	Z12	X13	Y13	Z13	X14	Y14	Z14	X15	Y15	Z15	X16	Y16	Z16	X17	Y17	Z17	X18	Y18	Z18	
265	2.20833	-199.959	1.02267	7.44282	-195.37	-17.9536	-4.79212	-178.914	-29.6705	-16.375	-168.368	-39.0062	-27.6643	-199.006	8.52037	-54.6089	-193.307	-0.36363	-80.3053	-192.438	-6.39618	-97.7903	-222.281	-6.04754	-57.626	-230.56	-33.6552	-51.8731	-227.164	-28.3678	-18.2818	-238.727	-10.8393	-49.9663	-241.872	-30.6076	-31.6663	-233.949	-19.7971	-9.6169	-256.49	-5.96493	-42.2587	-247.844	-22.4862	-23.4942	-238.752	-6.27668	-7.88613	-238.204	31.9593	-18.3269	-239.769	36.8348	5.80142	-210.727	29.873	-2.31873	
266	2.21667	-199.151	0.961534	6.98025	-193.075	-17.2599	-8.37774	-178.846	-28.7278	-19.7331	-167.221	-38.4505	-31.2116	-197.242	8.65583	-56.1325	-190.611	0.932191	-76.7193	-188.025	-7.35551	-97.6138	-223.893	-4.49282	-60.6184	-229.065	-34.1883	-55.6118	-227.609	-32.2522	-20.1909	-237.887	-7.48615	-52.7564	-241	-30.5815	-37.859	-235.289	-20.5835	-8.21819	-254.346	-6.48581	-45.1582	-249.706	-24.6875	-28.0935	-236.656	-11.9534	-10.5167	-234.403	32.2525	-22.0547	-240.939	35.987	6.7865	-210.513	29.0701	-2.12256	
267	2.225	-198.333	1.10964	7.81522	-188.321	-17.4343	-8.34863	-180.335	-27.4536	-21.7617	-164.511	-37.7209	-32.7745	-193.789	8.40349	-56.3886	-189.034	-1.32547	-81.0233	-188.841	-8.84474	-103.335	-220.454	-5.15149	-64.4607	-227.082	-31.2597	-63.3427	-227.928	-40.6882	-30.3373	-240.4	-3.20216	-55.0471	-240.316	-31.5439	-43.0997	-237.284	-29.228	-17.4314	-252.747	-1.4639	-47.6361	-250.011	-23.9241	-37.0491	-238.515	-20.5522	-14.8561	-237.261	33.6627	-21.4542	-239.584	36.4777	8.18835	-211.076	28.6628	-2.50659	
268	2.23333	-197.034	1.18464	10.0977	-190.52	-14.8487	-9.92697	-174.625	-25.4277	-26.4744	-166.782	-33.7645	-34.9566	-190.121	5.52311	-59.4262	-188.226	-0.011891	-76.6442	-186.497	-9.54689	-102.96	-219.758	-0.325345	-65.5248	-227.823	-30.1478	-69.7072	-231.04	-45.9298	-47.1485	-240.116	-0.904547	-57.9922	-239.948	-27.9415	-54.1079	-238.602	-35.4125	-30.5551	-257.764	1.27044	-49.4789	-251.555	-22.0915	-45.4856	-239.608	-25.6313	-21.2086	-235.226	33.9439	-19.5071	-235.956	36.4539	10.1906	-210.46	29.7776	-5.66375	
269	2.24167	-194.729	-0.339994	13.6361	-185.227	-15.4298	-9.15892	-176.684	-22.2775	-25.8768	-163.287	-31.0887	-40.9998	-192.018	6.0781	-54.7918	-189.399	-0.439227	-77.2698	-184.375	-10.7219	-98.27	-219.313	5.49714	-62.7717	-223.614	-19.3378	-78.279	-231.625	-46.99	-64.7521	-234.175	2.26464	-60.8005	-239.053	-25.9817	-64.3124	-242.32	-43.3908	-42.418	-255.381	6.76114	-48.1823	-254.506	-18.7983	-52.1587	-246.726	-33.7574	-36.0665	-234.07	30.9456	-15.672	-231.626	36.3293	10.6093	-206.657	26.3596	1.02714	
270	2.25	-199.252	1.28193	12.4151	-184.732	-14.3241	-9.8832	-174.846	-21.0733	-27.6979	-165.059	-27.9486	-39.5426	-191.599	6.28786	-55.6664	-190.911	-1.32542	-76.989	-185.392	-10.8598	-96.5672	-214.665	4.3912	-65.7281	-220.084	-14.3173	-82.6015	-227.684	-47.3459	-80.5704	-233.893	6.30256	-59.6788	-240.842	-14.8172	-73.6027	-239.478	-44.9877	-65.6563	-254.617	8.33201	-46.9549	-253.665	-11.7569	-58.5137	-250.121	-39.4184	-50.2288	-234.097	30.2026	-15.2239	-234.544	33.3761	11.382	-208.25	28.3703	0.0985334	
271	2.25833	-196.444	1.43762	12.4644	-182.885	-13.2623	-9.20972	-173.715	-19.5593	-26.5614	-167.21	-24.231	-42.0812	-190.548	4.03312	-56.9305	-187.564	-5.07994	-76.2428	-186.206	-13.4659	-99.3045	-216.892	4.40844	-66.0896	-214.938	-11.2445	-83.2443	-221.142	-36.9499	-94.1421	-234.673	6.6093	-56.6526	-235.896	-12.596	-77.0634	-240.663	-35.4264	-83.5249	-253.531	6.27763	-47.2681	-257.854	-13.8608	-62.3891	-253.252	-37.1193	-62.4345	-236.227	28.659	-17.3022	-234.004	33.599	11.6657	-209.688	25.2817	-1.55692	
272	2.26667	-195.951	1.30481	15.4993	-186.612	-10.5385	-5.37145	-172.696	-16.5056	-29.1899	-164.953	-22.3656	-37.1489	-196.801	4.02636	-55.0621	-190.39	-5.5991	-73.0071	-189.138	-13.3012	-95.0167	-218.394	4.18975	-65.2621	-219.975	-12.224	-86.5962	-218.925	-31.0464	-100.276	-236.065	4.72371	-59.5473	-236.418	-6.73639	-76.7163	-237.58	-27.0272	-92.3897	-256.952	7.04507	-44.566	-260.339	-8.23659	-63.1812	-260.861	-25.987	-72.1705	-238.443	27.6261	-12.477	-234.605	32.8568	13.4471	-210.43	24.6233	0.847966	
273	2.275	-195.455	3.48338	13.4301	-185.342	-9.4491	-3.56872	-175.043	-13.9713	-26.3149	-163.434	-19.6792	-36.976	-193.152	2.31627	-51.5966	-189.013	-7.38695	-72.8758	-184.958	-15.4418	-95.0164	-218.073	3.96713	-61.8971	-220.681	-6.58983	-83.6575	-218.093	-24.8494	-104.278	-239.788	5.68497	-59.4064	-237.175	-4.04991	-76.5266	-239.324	-19.9016	-98.073	-256.356	6.4191	-43.2599	-263.388	-5.4039	-63.845	-261.054	-15.9819	-78.6181	-238.132	26.388	-12.1405	-236.5	31.6083	13.0676	-214.034	24.8634	-0.683944	
274	2.28333	-198.381	3.22202	14.8519	-181.534	-8.6602	-1.96764	-169.046	-13.4509	-23.6998	-158.995	-18.7495	-34.0905	-197.782	1.37163	-53.5985	-192.224	-6.91758	-73.2681	-187.713	-14.4584	-96.4459	-217.885	4.36691	-62.4141	-215.436	-6.66398	-84.7327	-217.283	-19.3323	-105.601	-240.723	5.52215	-57.5078	-241.013	-2.13642	-76.9758	-241.332	-12.9159	-97.1128	-260.069	5.70155	-44.7571	-264.319	-2.91153	-61.9721	-265.607	-11.673	-81.4502	-235.695	22.5953	-13.616	-235.961	29.4887	8.88988	-212.843	25.5043	1.61327	
275	2.29167	-194.744	3.6914	15.3711	-180.942	-7.70326	-1.21251	-168.439	-11.9498	-22.1215	-155.463	-16.7966	-35.9729	-193.768	1.37141	-52.4188	-188.488	-8.12191	-75.4423	-185.524	-13.0823	-95.3961	-218.823	3.10717	-63.4628	-215.194	-6.281	-85.9142	-221.994	-16.3866	-107.888	-237.122	6.02814	-54.5095	-240.838	-0.725931	-77.58	-239.817	-9.57366	-100.428	-256.249	6.21552	-43.084	-261.258	-0.488338	-61.7337	-265.508	-9.27322	-81.5098	-239.466	22.0278	-13.7281	-239.069	31.2543	8.69702	-211.382	23.4645	-1.2242	
